<svg width="54.927" height="25.567" viewBox="0 0 54.927 25.567" xmlns="http://www.w3.org/2000/svg"><g id="svgGroup" stroke-linecap="round" fill-rule="nonzero" font-size="9pt" stroke="#000" stroke-width="1.5" fill="#ffffff" style="stroke:#000;stroke-width:1.5;fill:#ffffff"><path d="M 35.496 7.691 L 30.488 7.691 Q 30.488 6.548 30.169 5.762 A 2.839 2.839 0 0 0 29.745 5.033 Q 29.001 4.119 27.6 4.119 A 3.587 3.587 0 0 0 26.764 4.211 A 2.397 2.397 0 0 0 25.549 4.896 A 2.612 2.612 0 0 0 24.901 6.149 A 3.855 3.855 0 0 0 24.814 6.99 A 2.461 2.461 0 0 0 25.346 8.513 A 3.394 3.394 0 0 0 25.635 8.844 Q 26.455 9.673 28.54 10.562 Q 30.929 11.425 32.46 12.546 A 8.149 8.149 0 0 1 33.829 13.792 A 6.704 6.704 0 0 1 35.355 17.123 A 9.24 9.24 0 0 1 35.479 18.662 A 8.191 8.191 0 0 1 35.211 20.813 A 5.868 5.868 0 0 1 33.411 23.738 Q 31.343 25.567 27.788 25.567 Q 25.378 25.567 23.396 24.575 Q 21.414 23.584 20.294 21.738 A 7.656 7.656 0 0 1 19.284 18.886 A 10.021 10.021 0 0 1 19.175 17.381 L 24.216 17.381 A 8.763 8.763 0 0 0 24.282 18.491 Q 24.45 19.806 25.054 20.508 Q 25.716 21.278 27.04 21.439 A 6.196 6.196 0 0 0 27.788 21.482 Q 30.42 21.482 30.42 18.696 A 4.745 4.745 0 0 0 30.344 17.818 Q 30.177 16.932 29.642 16.398 A 4.017 4.017 0 0 0 29.104 15.956 Q 28.495 15.53 27.52 15.087 A 19.785 19.785 0 0 0 26.814 14.783 A 21.538 21.538 0 0 1 24.68 13.849 Q 23.686 13.343 22.909 12.786 A 8.392 8.392 0 0 1 21.431 11.459 Q 19.79 9.553 19.79 6.956 A 7.168 7.168 0 0 1 20.18 4.544 A 6.123 6.123 0 0 1 22.02 1.906 A 7.837 7.837 0 0 1 25.897 0.143 A 10.803 10.803 0 0 1 27.686 0 A 9.283 9.283 0 0 1 30.042 0.289 A 7.794 7.794 0 0 1 31.77 0.966 A 6.698 6.698 0 0 1 34.53 3.692 A 7.866 7.866 0 0 1 35.449 6.734 A 9.709 9.709 0 0 1 35.496 7.691 Z M 54.927 0.342 L 54.927 4.529 L 48.774 4.529 L 48.774 25.225 L 43.733 25.225 L 43.733 4.529 L 37.683 4.529 L 37.683 0.342 L 54.927 0.342 Z M 8.374 16.475 L 5.024 16.475 L 5.024 25.225 L 0 25.225 L 0 0.342 L 8.477 0.342 A 9.647 9.647 0 0 1 11.035 0.664 A 7.14 7.14 0 0 1 14.364 2.632 A 7.782 7.782 0 0 1 16.447 6.992 A 10.79 10.79 0 0 1 16.56 8.579 A 9.958 9.958 0 0 1 16.28 11.009 A 6.935 6.935 0 0 1 14.39 14.356 A 7.161 7.161 0 0 1 11.073 16.164 Q 9.846 16.475 8.374 16.475 Z M 5.024 4.529 L 5.024 12.288 L 8.477 12.288 A 3.504 3.504 0 0 0 9.415 12.169 A 2.506 2.506 0 0 0 10.698 11.348 A 3.037 3.037 0 0 0 11.246 10.331 Q 11.391 9.887 11.448 9.346 A 7.023 7.023 0 0 0 11.484 8.613 A 7.017 7.017 0 0 0 11.389 7.423 Q 11.276 6.766 11.028 6.237 A 3.581 3.581 0 0 0 10.681 5.648 A 2.762 2.762 0 0 0 9.857 4.882 Q 9.277 4.538 8.528 4.529 L 5.024 4.529 Z"/></g></svg>