<svg width="350.352" height="32.872" viewBox="0 0 180.352 32.872" xmlns="http://www.w3.org/2000/svg"><g id="svgGroup" stroke-linecap="round" fill-rule="evenodd" font-size="9pt" stroke="#000" stroke-width="0mm" fill="#000" style="stroke:#000;stroke-width:0mm;fill:#000"><path d="M 152.468 0.44 L 152.468 32.432 L 148.425 32.432 L 135.615 7.779 L 135.615 32.432 L 131.572 32.432 L 131.572 0.44 L 135.615 0.44 L 148.469 25.203 L 148.469 0.44 L 152.468 0.44 Z M 175.54 32.432 L 166.597 17.688 L 163.455 21.49 L 163.455 32.432 L 159.434 32.432 L 159.434 0.44 L 163.455 0.44 L 163.455 15.886 L 166.091 12.393 L 174.705 0.44 L 179.539 0.44 L 169.146 14.524 L 180.352 32.432 L 175.54 32.432 Z M 42.957 9.69 L 38.914 9.69 A 9.894 9.894 0 0 0 38.76 7.888 Q 38.445 6.19 37.485 5.098 Q 36.057 3.472 33.376 3.472 Q 30.938 3.472 29.597 4.834 A 4.457 4.457 0 0 0 28.478 6.839 Q 28.257 7.658 28.257 8.657 A 4.616 4.616 0 0 0 28.687 10.665 A 4.586 4.586 0 0 0 29.707 12.041 A 7.909 7.909 0 0 0 30.891 12.944 Q 32.2 13.774 34.189 14.48 A 25.955 25.955 0 0 1 36.818 15.498 Q 39.533 16.737 40.946 18.325 A 7.849 7.849 0 0 1 42.76 22.031 A 11.223 11.223 0 0 1 42.979 24.302 A 9.699 9.699 0 0 1 42.593 27.104 A 7.557 7.557 0 0 1 40.452 30.531 Q 38.002 32.8 33.838 32.869 A 15.868 15.868 0 0 1 33.574 32.871 Q 30.784 32.871 28.422 31.652 A 9.219 9.219 0 0 1 24.708 28.224 A 9.233 9.233 0 0 1 23.397 24.122 A 11.417 11.417 0 0 1 23.357 23.159 L 27.4 23.159 A 8.512 8.512 0 0 0 27.595 25.041 Q 27.888 26.33 28.616 27.273 A 5.116 5.116 0 0 0 29.059 27.774 A 5.512 5.512 0 0 0 31.829 29.244 A 8.136 8.136 0 0 0 33.574 29.422 Q 35.402 29.422 36.607 28.778 A 3.972 3.972 0 0 0 37.573 28.059 A 4.524 4.524 0 0 0 38.755 25.845 A 6.71 6.71 0 0 0 38.914 24.346 A 7.071 7.071 0 0 0 38.774 22.896 Q 38.489 21.533 37.617 20.677 Q 36.321 19.402 32.937 18.194 Q 29.591 16.999 27.802 15.685 A 9.588 9.588 0 0 1 27.762 15.656 A 10.165 10.165 0 0 1 26.197 14.233 A 8.072 8.072 0 0 1 25.082 12.624 A 7.812 7.812 0 0 1 24.266 9.952 A 9.888 9.888 0 0 1 24.192 8.723 A 9.307 9.307 0 0 1 24.704 5.579 A 8.078 8.078 0 0 1 26.73 2.461 A 8.585 8.585 0 0 1 31.478 0.145 A 12.019 12.019 0 0 1 33.376 0 A 10.682 10.682 0 0 1 36.341 0.399 A 9.172 9.172 0 0 1 38.386 1.264 A 8.614 8.614 0 0 1 41.77 4.768 A 10.319 10.319 0 0 1 42.955 9.523 A 12.02 12.02 0 0 1 42.957 9.69 Z M 123.091 32.432 L 120.564 24.082 L 109.753 24.082 L 107.271 32.432 L 103.14 32.432 L 113.445 0.44 L 116.895 0.44 L 127.222 32.432 L 123.091 32.432 Z M 66.951 0.44 L 66.951 3.911 L 58.535 3.911 L 58.535 32.432 L 54.514 32.432 L 54.514 3.911 L 46.121 3.911 L 46.121 0.44 L 66.951 0.44 Z M 90.527 32.432 L 81.101 32.432 L 81.101 0.44 L 90.22 0.44 A 14.284 14.284 0 0 1 92.712 0.643 Q 95.274 1.097 96.801 2.571 Q 98.675 4.38 98.958 7.723 A 14.696 14.696 0 0 1 99.009 8.965 A 7.6 7.6 0 0 1 98.659 11.304 A 6.671 6.671 0 0 1 97.888 12.92 A 7.531 7.531 0 0 1 94.856 15.579 A 6.071 6.071 0 0 1 98.298 18.218 A 7.67 7.67 0 0 1 98.339 18.282 A 8.224 8.224 0 0 1 99.458 21.242 A 11.113 11.113 0 0 1 99.624 23.203 A 12.7 12.7 0 0 1 99.345 25.946 Q 98.921 27.862 97.855 29.275 A 7.711 7.711 0 0 1 97.262 29.971 Q 95.015 32.312 90.95 32.426 A 15.026 15.026 0 0 1 90.527 32.432 Z M 10.481 19.907 L 4.021 19.907 L 4.021 32.432 L 0 32.432 L 0 0.44 L 10.195 0.44 A 11.992 11.992 0 0 1 13.154 0.784 A 8.299 8.299 0 0 1 17.205 3.109 A 9.003 9.003 0 0 1 19.517 7.677 A 12.999 12.999 0 0 1 19.753 10.218 A 14.062 14.062 0 0 1 19.492 13.017 Q 19.151 14.694 18.366 15.982 A 7.557 7.557 0 0 1 17.325 17.326 A 8.149 8.149 0 0 1 13.571 19.488 Q 12.303 19.838 10.795 19.898 A 15.59 15.59 0 0 1 10.481 19.907 Z M 4.021 3.911 L 4.021 16.458 L 10.195 16.458 A 7.152 7.152 0 0 0 11.855 16.277 Q 13.203 15.955 14.106 15.063 A 4.537 4.537 0 0 0 14.304 14.854 A 5.216 5.216 0 0 0 15.375 12.906 Q 15.732 11.757 15.732 10.261 A 9.163 9.163 0 0 0 15.542 8.34 Q 15.267 7.056 14.593 6.081 A 5.553 5.553 0 0 0 14.26 5.647 A 4.819 4.819 0 0 0 11.031 3.958 A 6.88 6.88 0 0 0 10.217 3.911 L 4.021 3.911 Z M 90.703 17.469 L 85.122 17.469 L 85.122 28.982 L 90.615 28.982 A 5.595 5.595 0 0 0 92.226 28.762 A 4.301 4.301 0 0 0 94.241 27.477 Q 95.581 25.972 95.581 23.247 Q 95.581 18.164 91.807 17.552 A 6.9 6.9 0 0 0 90.703 17.469 Z M 115.159 6.065 L 110.808 20.611 L 119.531 20.611 L 115.159 6.065 Z M 85.122 3.911 L 85.122 14.085 L 90.286 14.085 A 5.028 5.028 0 0 0 91.877 13.844 A 4.154 4.154 0 0 0 93.658 12.678 A 4.773 4.773 0 0 0 94.792 10.435 A 6.951 6.951 0 0 0 94.944 8.943 A 9.458 9.458 0 0 0 94.852 7.574 Q 94.616 5.97 93.779 5.109 A 3.613 3.613 0 0 0 92.335 4.22 Q 91.436 3.911 90.22 3.911 L 85.122 3.911 Z"/></g></svg>